<svg height="3630" width="720" xmlns="http://www.w3.org/2000/svg">
<rect height="3630" fill="#555" width="720"></rect>
<text fill="#7f7" font-family="Courier New" font-size="12" xml:space="preserve">
<tspan x="10" y="26">22 megabytes installed</tspan>
<tspan x="10" y="42"></tspan>
<tspan x="10" y="58">node_modules</tspan>
<tspan x="10" y="74">└─┬ gulp-verb@0.3.0 </tspan>
<tspan x="10" y="90">  ├─┬ gray-matter@0.4.2 </tspan>
<tspan x="10" y="106">  │ ├── delims@0.1.4 </tspan>
<tspan x="10" y="122">  │ ├─┬ fs-utils@0.4.3 </tspan>
<tspan x="10" y="138">  │ │ ├── async@0.6.2 </tspan>
<tspan x="10" y="154">  │ │ ├─┬ globule@0.2.0 </tspan>
<tspan x="10" y="170">  │ │ │ ├─┬ glob@3.2.11 </tspan>
<tspan x="10" y="186">  │ │ │ │ └── minimatch@0.3.0 </tspan>
<tspan x="10" y="202">  │ │ │ └── minimatch@0.2.14 </tspan>
<tspan x="10" y="218">  │ │ ├── graceful-fs@2.0.3 </tspan>
<tspan x="10" y="234">  │ │ ├─┬ js-yaml@3.0.2 </tspan>
<tspan x="10" y="250">  │ │ │ ├─┬ argparse@0.1.16 </tspan>
<tspan x="10" y="266">  │ │ │ │ ├── underscore@1.7.0 </tspan>
<tspan x="10" y="282">  │ │ │ │ └── underscore.string@2.4.0 </tspan>
<tspan x="10" y="298">  │ │ │ └── esprima@1.0.4 </tspan>
<tspan x="10" y="314">  │ │ ├── mkdirp@0.3.5 </tspan>
<tspan x="10" y="330">  │ │ └── rimraf@2.2.8 </tspan>
<tspan x="10" y="346">  │ ├─┬ js-yaml@3.8.3 </tspan>
<tspan x="10" y="362">  │ │ ├─┬ argparse@1.0.9 </tspan>
<tspan x="10" y="378">  │ │ │ └── sprintf-js@1.0.3 </tspan>
<tspan x="10" y="394">  │ │ └── esprima@3.1.3 </tspan>
<tspan x="10" y="410">  │ └─┬ verbalize@0.1.2 </tspan>
<tspan x="10" y="426">  │   └─┬ chalk@0.4.0 </tspan>
<tspan x="10" y="442">  │     ├── ansi-styles@1.0.0 </tspan>
<tspan x="10" y="458">  │     ├── has-color@0.1.7 </tspan>
<tspan x="10" y="474">  │     └── strip-ansi@0.1.1 </tspan>
<tspan x="10" y="490">  ├─┬ gulp-util@2.2.20 </tspan>
<tspan x="10" y="506">  │ ├─┬ chalk@0.5.1 </tspan>
<tspan x="10" y="522">  │ │ ├── ansi-styles@1.1.0 </tspan>
<tspan x="10" y="538">  │ │ ├── escape-string-regexp@1.0.5 </tspan>
<tspan x="10" y="554">  │ │ ├── has-ansi@0.1.0 </tspan>
<tspan x="10" y="570">  │ │ ├─┬ strip-ansi@0.3.0 </tspan>
<tspan x="10" y="586">  │ │ │ └── ansi-regex@0.2.1 </tspan>
<tspan x="10" y="602">  │ │ └── supports-color@0.2.0 </tspan>
<tspan x="10" y="618">  │ ├─┬ dateformat@1.0.12 </tspan>
<tspan x="10" y="634">  │ │ ├── get-stdin@4.0.1 </tspan>
<tspan x="10" y="650">  │ │ └─┬ meow@3.7.0 </tspan>
<tspan x="10" y="666">  │ │   ├─┬ camelcase-keys@2.1.0 </tspan>
<tspan x="10" y="682">  │ │   │ └── camelcase@2.1.1 </tspan>
<tspan x="10" y="698">  │ │   ├── decamelize@1.2.0 </tspan>
<tspan x="10" y="714">  │ │   ├─┬ loud-rejection@1.6.0 </tspan>
<tspan x="10" y="730">  │ │   │ ├─┬ currently-unhandled@0.4.1 </tspan>
<tspan x="10" y="746">  │ │   │ │ └── array-find-index@1.0.2 </tspan>
<tspan x="10" y="762">  │ │   │ └── signal-exit@3.0.2 </tspan>
<tspan x="10" y="778">  │ │   ├── map-obj@1.0.1 </tspan>
<tspan x="10" y="794">  │ │   ├── minimist@1.2.0 </tspan>
<tspan x="10" y="810">  │ │   ├─┬ normalize-package-data@2.3.8 </tspan>
<tspan x="10" y="826">  │ │   │ ├── hosted-git-info@2.4.2 </tspan>
<tspan x="10" y="842">  │ │   │ ├─┬ is-builtin-module@1.0.0 </tspan>
<tspan x="10" y="858">  │ │   │ │ └── builtin-modules@1.1.1 </tspan>
<tspan x="10" y="874">  │ │   │ ├── semver@5.3.0 </tspan>
<tspan x="10" y="890">  │ │   │ └─┬ validate-npm-package-license@3.0.1 </tspan>
<tspan x="10" y="906">  │ │   │   ├─┬ spdx-correct@1.0.2 </tspan>
<tspan x="10" y="922">  │ │   │   │ └── spdx-license-ids@1.2.2 </tspan>
<tspan x="10" y="938">  │ │   │   └── spdx-expression-parse@1.0.4 </tspan>
<tspan x="10" y="954">  │ │   ├── object-assign@4.1.1 </tspan>
<tspan x="10" y="970">  │ │   ├─┬ read-pkg-up@1.0.1 </tspan>
<tspan x="10" y="986">  │ │   │ ├─┬ find-up@1.1.2 </tspan>
<tspan x="10" y="1002">  │ │   │ │ ├── path-exists@2.1.0 </tspan>
<tspan x="10" y="1018">  │ │   │ │ └─┬ pinkie-promise@2.0.1 </tspan>
<tspan x="10" y="1034">  │ │   │ │   └── pinkie@2.0.4 </tspan>
<tspan x="10" y="1050">  │ │   │ └─┬ read-pkg@1.1.0 </tspan>
<tspan x="10" y="1066">  │ │   │   ├─┬ load-json-file@1.1.0 </tspan>
<tspan x="10" y="1082">  │ │   │   │ ├── graceful-fs@4.1.11 </tspan>
<tspan x="10" y="1098">  │ │   │   │ ├─┬ parse-json@2.2.0 </tspan>
<tspan x="10" y="1114">  │ │   │   │ │ └─┬ error-ex@1.3.1 </tspan>
<tspan x="10" y="1130">  │ │   │   │ │   └── is-arrayish@0.2.1 </tspan>
<tspan x="10" y="1146">  │ │   │   │ ├── pify@2.3.0 </tspan>
<tspan x="10" y="1162">  │ │   │   │ └─┬ strip-bom@2.0.0 </tspan>
<tspan x="10" y="1178">  │ │   │   │   └── is-utf8@0.2.1 </tspan>
<tspan x="10" y="1194">  │ │   │   └─┬ path-type@1.1.0 </tspan>
<tspan x="10" y="1210">  │ │   │     └── graceful-fs@4.1.11 </tspan>
<tspan x="10" y="1226">  │ │   ├─┬ redent@1.0.0 </tspan>
<tspan x="10" y="1242">  │ │   │ ├─┬ indent-string@2.1.0 </tspan>
<tspan x="10" y="1258">  │ │   │ │ └─┬ repeating@2.0.1 </tspan>
<tspan x="10" y="1274">  │ │   │ │   └─┬ is-finite@1.0.2 </tspan>
<tspan x="10" y="1290">  │ │   │ │     └── number-is-nan@1.0.1 </tspan>
<tspan x="10" y="1306">  │ │   │ └── strip-indent@1.0.1 </tspan>
<tspan x="10" y="1322">  │ │   └── trim-newlines@1.0.0 </tspan>
<tspan x="10" y="1338">  │ ├── lodash._reinterpolate@2.4.1 </tspan>
<tspan x="10" y="1354">  │ ├─┬ lodash.template@2.4.1 </tspan>
<tspan x="10" y="1370">  │ │ ├── lodash._escapestringchar@2.4.1 </tspan>
<tspan x="10" y="1386">  │ │ ├─┬ lodash.defaults@2.4.1 </tspan>
<tspan x="10" y="1402">  │ │ │ └── lodash._objecttypes@2.4.1 </tspan>
<tspan x="10" y="1418">  │ │ ├─┬ lodash.escape@2.4.1 </tspan>
<tspan x="10" y="1434">  │ │ │ ├─┬ lodash._escapehtmlchar@2.4.1 </tspan>
<tspan x="10" y="1450">  │ │ │ │ └── lodash._htmlescapes@2.4.1 </tspan>
<tspan x="10" y="1466">  │ │ │ └── lodash._reunescapedhtml@2.4.1 </tspan>
<tspan x="10" y="1482">  │ │ ├─┬ lodash.keys@2.4.1 </tspan>
<tspan x="10" y="1498">  │ │ │ ├── lodash._isnative@2.4.1 </tspan>
<tspan x="10" y="1514">  │ │ │ ├── lodash._shimkeys@2.4.1 </tspan>
<tspan x="10" y="1530">  │ │ │ └── lodash.isobject@2.4.1 </tspan>
<tspan x="10" y="1546">  │ │ ├── lodash.templatesettings@2.4.1 </tspan>
<tspan x="10" y="1562">  │ │ └── lodash.values@2.4.1 </tspan>
<tspan x="10" y="1578">  │ ├── minimist@0.2.0 </tspan>
<tspan x="10" y="1594">  │ ├─┬ multipipe@0.1.2 </tspan>
<tspan x="10" y="1610">  │ │ └─┬ duplexer2@0.0.2 </tspan>
<tspan x="10" y="1626">  │ │   └── readable-stream@1.1.14 </tspan>
<tspan x="10" y="1642">  │ └─┬ vinyl@0.2.3 </tspan>
<tspan x="10" y="1658">  │   └── clone-stats@0.0.1 </tspan>
<tspan x="10" y="1674">  ├── lodash@2.4.2 </tspan>
<tspan x="10" y="1690">  ├─┬ through2@0.5.1 </tspan>
<tspan x="10" y="1706">  │ ├─┬ readable-stream@1.0.34 </tspan>
<tspan x="10" y="1722">  │ │ ├── core-util-is@1.0.2 </tspan>
<tspan x="10" y="1738">  │ │ ├── inherits@2.0.3 </tspan>
<tspan x="10" y="1754">  │ │ ├── isarray@0.0.1 </tspan>
<tspan x="10" y="1770">  │ │ └── string_decoder@0.10.31 </tspan>
<tspan x="10" y="1786">  │ └── xtend@3.0.0 </tspan>
<tspan x="10" y="1802">  └─┬ verb@0.2.15 </tspan>
<tspan x="10" y="1818">    ├─┬ change-case@2.3.1 </tspan>
<tspan x="10" y="1834">    │ ├── camel-case@1.2.2 </tspan>
<tspan x="10" y="1850">    │ ├── constant-case@1.1.2 </tspan>
<tspan x="10" y="1866">    │ ├── dot-case@1.1.2 </tspan>
<tspan x="10" y="1882">    │ ├── is-lower-case@1.1.3 </tspan>
<tspan x="10" y="1898">    │ ├── is-upper-case@1.1.2 </tspan>
<tspan x="10" y="1914">    │ ├── lower-case@1.1.4 </tspan>
<tspan x="10" y="1930">    │ ├── lower-case-first@1.0.2 </tspan>
<tspan x="10" y="1946">    │ ├── param-case@1.1.2 </tspan>
<tspan x="10" y="1962">    │ ├── pascal-case@1.1.2 </tspan>
<tspan x="10" y="1978">    │ ├── path-case@1.1.2 </tspan>
<tspan x="10" y="1994">    │ ├── sentence-case@1.1.3 </tspan>
<tspan x="10" y="2010">    │ ├── snake-case@1.1.2 </tspan>
<tspan x="10" y="2026">    │ ├── swap-case@1.1.2 </tspan>
<tspan x="10" y="2042">    │ ├── title-case@1.1.2 </tspan>
<tspan x="10" y="2058">    │ ├── upper-case@1.1.3 </tspan>
<tspan x="10" y="2074">    │ └── upper-case-first@1.1.2 </tspan>
<tspan x="10" y="2090">    ├─┬ class-extend@0.1.2 </tspan>
<tspan x="10" y="2106">    │ └── object-assign@2.1.1 </tspan>
<tspan x="10" y="2122">    ├─┬ columnify@1.5.4 </tspan>
<tspan x="10" y="2138">    │ ├─┬ strip-ansi@3.0.1 </tspan>
<tspan x="10" y="2154">    │ │ └── ansi-regex@2.1.1 </tspan>
<tspan x="10" y="2170">    │ └─┬ wcwidth@1.0.1 </tspan>
<tspan x="10" y="2186">    │   └─┬ defaults@1.0.3 </tspan>
<tspan x="10" y="2202">    │     └── clone@1.0.2 </tspan>
<tspan x="10" y="2218">    ├─┬ cwd@0.3.7 </tspan>
<tspan x="10" y="2234">    │ ├── findup-sync@0.1.3 </tspan>
<tspan x="10" y="2250">    │ └── normalize-path@0.1.1 </tspan>
<tspan x="10" y="2266">    ├── eventemitter2@0.4.14 </tspan>
<tspan x="10" y="2282">    ├─┬ expander@0.3.3 </tspan>
<tspan x="10" y="2298">    │ └── lodash@2.2.1 </tspan>
<tspan x="10" y="2314">    ├─┬ find@0.1.7 </tspan>
<tspan x="10" y="2330">    │ └── traverse-chain@0.1.0 </tspan>
<tspan x="10" y="2346">    ├─┬ frep@0.2.3 </tspan>
<tspan x="10" y="2362">    │ └── replacements@0.1.3 </tspan>
<tspan x="10" y="2378">    ├── getobject@0.1.0 </tspan>
<tspan x="10" y="2394">    ├─┬ marked-extras@0.2.4 </tspan>
<tspan x="10" y="2410">    │ ├── highlight.js@8.0.0 </tspan>
<tspan x="10" y="2426">    │ ├── marked@0.3.0 </tspan>
<tspan x="10" y="2442">    │ └── underscore.string@2.3.3 </tspan>
<tspan x="10" y="2458">    ├─┬ marked-toc@0.2.8 </tspan>
<tspan x="10" y="2474">    │ ├─┬ fs-utils@0.5.0 </tspan>
<tspan x="10" y="2490">    │ │ ├── async@0.9.2 </tspan>
<tspan x="10" y="2506">    │ │ ├─┬ delete@0.1.5 </tspan>
<tspan x="10" y="2522">    │ │ │ ├── is-path-cwd@0.1.0 </tspan>
<tspan x="10" y="2538">    │ │ │ └─┬ is-path-in-cwd@0.1.1 </tspan>
<tspan x="10" y="2554">    │ │ │   └─┬ is-path-inside@0.1.0 </tspan>
<tspan x="10" y="2570">    │ │ │     └── path-is-inside@1.0.2 </tspan>
<tspan x="10" y="2586">    │ │ ├─┬ extend-shallow@0.1.1 </tspan>
<tspan x="10" y="2602">    │ │ │ └── array-slice@0.2.3 </tspan>
<tspan x="10" y="2618">    │ │ ├─┬ graceful-fs@3.0.11 </tspan>
<tspan x="10" y="2634">    │ │ │ └── natives@1.1.0 </tspan>
<tspan x="10" y="2650">    │ │ ├─┬ is-absolute@0.1.7 </tspan>
<tspan x="10" y="2666">    │ │ │ └── is-relative@0.1.3 </tspan>
<tspan x="10" y="2682">    │ │ └── kind-of@0.1.2 </tspan>
<tspan x="10" y="2698">    │ ├─┬ gray-matter@0.5.3 </tspan>
<tspan x="10" y="2714">    │ │ ├── coffee-script@1.12.5 </tspan>
<tspan x="10" y="2730">    │ │ ├─┬ delims@0.4.2 </tspan>
<tspan x="10" y="2746">    │ │ │ ├─┬ arrayify-compact@0.1.0 </tspan>
<tspan x="10" y="2762">    │ │ │ │ └── array-flatten@2.1.1 </tspan>
<tspan x="10" y="2778">    │ │ │ └── object-pick@0.1.2 </tspan>
<tspan x="10" y="2794">    │ │ └─┬ mixin-deep@0.1.0 </tspan>
<tspan x="10" y="2810">    │ │   ├─┬ for-own@0.1.5 </tspan>
<tspan x="10" y="2826">    │ │   │ └── for-in@1.0.2 </tspan>
<tspan x="10" y="2842">    │ │   └── is-plain-object@0.1.0 </tspan>
<tspan x="10" y="2858">    │ └─┬ uslug@1.0.4 </tspan>
<tspan x="10" y="2874">    │   └── unorm@1.4.1 </tspan>
<tspan x="10" y="2890">    ├─┬ minimatch@0.3.0 </tspan>
<tspan x="10" y="2906">    │ ├── lru-cache@2.7.3 </tspan>
<tspan x="10" y="2922">    │ └── sigmund@1.0.1 </tspan>
<tspan x="10" y="2938">    ├── moment@2.18.1 </tspan>
<tspan x="10" y="2954">    ├─┬ namify@0.1.3 </tspan>
<tspan x="10" y="2970">    │ └── reserved@0.1.2 </tspan>
<tspan x="10" y="2986">    ├── parse-authors@0.1.1 </tspan>
<tspan x="10" y="3002">    ├─┬ plasma@0.2.7 </tspan>
<tspan x="10" y="3018">    │ └── expand-hash@0.2.2 </tspan>
<tspan x="10" y="3034">    ├── relative@0.1.6 </tspan>
<tspan x="10" y="3050">    ├─┬ remarked@0.1.4 </tspan>
<tspan x="10" y="3066">    │ ├── regexp-special-chars@0.1.0 </tspan>
<tspan x="10" y="3082">    │ └── template@0.2.1 </tspan>
<tspan x="10" y="3098">    ├─┬ remote-origin-url@0.2.1 </tspan>
<tspan x="10" y="3114">    │ └── ini@1.1.0 </tspan>
<tspan x="10" y="3130">    ├── repeat-string@0.1.2 </tspan>
<tspan x="10" y="3146">    ├── repo-licenses@0.1.0 </tspan>
<tspan x="10" y="3162">    ├── repo-templates@0.1.5 </tspan>
<tspan x="10" y="3178">    ├─┬ resolve-dep@0.4.1 </tspan>
<tspan x="10" y="3194">    │ ├── array-flatten@0.0.2 </tspan>
<tspan x="10" y="3210">    │ ├─┬ globby@0.1.1 </tspan>
<tspan x="10" y="3226">    │ │ ├── array-differ@0.1.0 </tspan>
<tspan x="10" y="3242">    │ │ ├─┬ array-union@0.1.0 </tspan>
<tspan x="10" y="3258">    │ │ │ └── array-uniq@0.1.1 </tspan>
<tspan x="10" y="3274">    │ │ ├── async@0.9.2 </tspan>
<tspan x="10" y="3290">    │ │ └─┬ glob@4.5.3 </tspan>
<tspan x="10" y="3306">    │ │   ├─┬ inflight@1.0.6 </tspan>
<tspan x="10" y="3322">    │ │   │ └── wrappy@1.0.2 </tspan>
<tspan x="10" y="3338">    │ │   ├─┬ minimatch@2.0.10 </tspan>
<tspan x="10" y="3354">    │ │   │ └─┬ brace-expansion@1.1.7 </tspan>
<tspan x="10" y="3370">    │ │   │   ├── balanced-match@0.4.2 </tspan>
<tspan x="10" y="3386">    │ │   │   └── concat-map@0.0.1 </tspan>
<tspan x="10" y="3402">    │ │   └── once@1.4.0 </tspan>
<tspan x="10" y="3418">    │ ├── load-pkg@0.1.0 </tspan>
<tspan x="10" y="3434">    │ ├─┬ multimatch@0.3.0 </tspan>
<tspan x="10" y="3450">    │ │ └── minimatch@0.3.0 </tspan>
<tspan x="10" y="3466">    │ └── resolve@0.6.3 </tspan>
<tspan x="10" y="3482">    ├── scrawl@0.0.5 </tspan>
<tspan x="10" y="3498">    ├─┬ strip-banner@0.1.1 </tspan>
<tspan x="10" y="3514">    │ └── strip-comments@0.1.6 </tspan>
<tspan x="10" y="3530">    ├─┬ template@0.1.8 </tspan>
<tspan x="10" y="3546">    │ └── underscore.string@2.3.3 </tspan>
<tspan x="10" y="3562">    ├── toml@2.3.2 </tspan>
<tspan x="10" y="3578">    ├── verb-contrib-templates@0.1.5 </tspan>
<tspan x="10" y="3594">    ├── verb-readme-badges@0.1.2 </tspan>
<tspan x="10" y="3610">    └── verb-readme-includes@0.1.20</tspan>
</text>
</svg>
